<svg width="15" height="14" viewBox="0 0 15 14" fill="none" xmlns="http://www.w3.org/2000/svg">
<path d="M9.69801 4.59561C9.8462 4.47621 9.87787 4.24798 9.7687 4.08585C9.6839 3.95992 9.59911 3.84023 9.52471 3.73596C9.37621 3.52785 9.17178 3.24909 8.94965 2.96931C8.72899 2.69132 8.48429 2.40392 8.25589 2.18317C8.14206 2.07316 8.0244 1.97199 7.90967 1.89634C7.8041 1.82673 7.65904 1.75 7.50034 1.75C7.34164 1.75 7.19654 1.82673 7.09098 1.89634C6.97625 1.97199 6.85861 2.07316 6.74478 2.18317C6.51636 2.40392 6.27168 2.69132 6.051 2.96931C5.82889 3.24909 5.62445 3.52785 5.47595 3.73596C5.40156 3.84023 5.31674 3.95992 5.23195 4.08585C5.12278 4.24798 5.15444 4.47621 5.30267 4.59561C5.36226 4.64363 5.43161 4.66674 5.50034 4.66667H7.50034H9.50031C9.56904 4.66674 9.63841 4.64363 9.69801 4.59561Z" fill="#666C79"/>
<path d="M5.302 9.40439C5.1538 9.52379 5.12213 9.75202 5.2313 9.91415C5.3161 10.0401 5.40089 10.1598 5.47529 10.264C5.62379 10.4721 5.82822 10.7509 6.05035 11.0307C6.27101 11.3087 6.51571 11.5961 6.74411 11.8168C6.85794 11.9268 6.9756 12.028 7.09033 12.1037C7.1959 12.1733 7.34096 12.25 7.49966 12.25C7.65836 12.25 7.80346 12.1733 7.90902 12.1037C8.02375 12.028 8.14139 11.9268 8.25522 11.8168C8.48364 11.5961 8.72832 11.3087 8.949 11.0307C9.17111 10.7509 9.37555 10.4721 9.52405 10.264C9.59844 10.1598 9.68326 10.0401 9.76805 9.91415C9.87722 9.75202 9.84556 9.52379 9.69733 9.40439C9.63774 9.35637 9.56839 9.33326 9.49966 9.33333L7.49966 9.33333L5.49969 9.33333C5.43096 9.33326 5.36159 9.35637 5.302 9.40439Z" fill="#666C79"/>
</svg>
